<svg width="123" height="44" viewBox="0 0 123 44" fill="none" xmlns="http://www.w3.org/2000/svg">
<g clip-path="url(#clip0_3416_5)">
<path d="M123 44H0V0H123V44ZM2.42749 41.6158H120.575V2.38418H2.42749V41.6188V41.6158Z" fill="white"/>
<path d="M21.8864 9.11926V9.83069H19.7881V34.6338H21.8864V35.3452H10.2518V34.6338H12.35V9.83069H10.2518V9.11926H21.8864Z" fill="white"/>
<path d="M39.244 9.11924V9.83067H37.1457V21.6693L37.4511 21.5928L48.2087 9.82773H45.1945V9.1163H51.8693V9.82773H49.5795L43.0184 17.0214L52.1747 34.6308H54.234V35.3423H41.9888V34.6308H43.7817L37.487 22.6776L37.1428 22.754V34.6308H39.241V35.3423H27.6064V34.6308H29.7046V9.83067H27.6064V9.11924H39.241H39.244Z" fill="white"/>
<path d="M70.4093 8.70768C78.6107 8.70768 82.7683 13.6524 82.7683 22.1573C82.7683 30.6621 78.7634 35.7186 69.9514 35.7186C61.1394 35.7186 57.3619 30.8855 57.3619 22.6423C57.3619 14.3991 61.9026 8.70474 70.4093 8.70474V8.70768ZM74.9111 20.996C74.9111 13.3143 74.6836 9.49555 70.104 9.49555C65.5244 9.49555 65.1832 13.4672 65.1832 21.1489V23.8477C65.1832 30.8914 65.6412 34.9366 70.104 34.9366C74.5669 34.9366 74.9111 31.303 74.9111 23.7712V20.999V20.996Z" fill="white"/>
<path d="M110.653 35.3452H105.313L92.2268 11.1036V34.6338H94.3251V35.3452H89.0989V34.6338H91.1972V9.83069H89.0989V9.11926H99.6291L109.623 27.9281V9.83363H107.525V9.1222H112.751V9.83363H110.653V35.3482V35.3452Z" fill="white"/>
</g>
<defs>
<clipPath id="clip0_3416_5">
<rect width="123" height="44" fill="white"/>
</clipPath>
</defs>
</svg>
